# This file uses centimeters as units for non-parametric coordinates.

mtllib puddlesmall.mtl
g default
v -15.025369 17.668756 9.095040
v -5.920154 17.668756 5.337557
v -15.296568 17.668756 -7.063657
v -3.721253 17.668756 -5.828572
v -2.776007 17.668756 -2.920971
v -10.499308 17.668756 9.336433
v -17.666305 17.668756 7.918278
v -17.666300 17.668756 0.294743
v -10.471548 17.668756 -9.843304
v -6.126996 17.668756 -7.910436
vt 0.000000 0.000000
vt 1.000000 0.000000
vt 0.000000 1.000000
vt 1.000000 1.000000
vt 1.000000 0.520498
vt 0.550729 0.000000
vt 0.000000 0.256339
vt 0.000000 0.575529
vt 0.372102 1.000000
vt 0.742331 1.000000
vn 0.000000 1.000000 0.000000
vn 0.000000 1.000000 0.000000
vn 0.000000 1.000000 0.000000
vn 0.000000 1.000000 0.000000
vn 0.000000 1.000000 0.000000
vn 0.000000 1.000000 0.000000
vn 0.000000 1.000000 0.000000
vn 0.000000 1.000000 0.000000
vn 0.000000 1.000000 0.000000
vn 0.000000 1.000000 0.000000
s off
g pasted__pPlane1 group
usemtl initialShadingGroup
f 1/1/1 6/6/2 2/2/3 5/5/4 4/4/5 10/10/6 9/9/7 3/3/8 8/8/9 7/7/10
