# This file uses centimeters as units for non-parametric coordinates.

mtllib puddlemed.mtl
g default
v 0.423044 17.668756 18.798977
v 10.521404 17.668756 15.425289
v 0.122265 17.668756 4.290751
v 12.960148 17.668756 5.399683
v 14.008496 17.668756 8.010298
v 5.442782 17.668756 19.015714
v -2.505949 17.668756 17.742411
v -2.505944 17.668756 10.897554
v 5.473570 17.668756 1.795021
v 10.292000 17.668756 3.530463
vt 0.000000 0.000000
vt 1.000000 0.000000
vt 0.000000 1.000000
vt 1.000000 1.000000
vt 1.000000 0.520498
vt 0.550729 0.000000
vt 0.000000 0.256339
vt 0.000000 0.575529
vt 0.372102 1.000000
vt 0.742331 1.000000
vn 0.000000 1.000000 0.000000
vn 0.000000 1.000000 0.000000
vn 0.000000 1.000000 0.000000
vn 0.000000 1.000000 0.000000
vn 0.000000 1.000000 0.000000
vn 0.000000 1.000000 0.000000
vn 0.000000 1.000000 0.000000
vn 0.000000 1.000000 0.000000
vn 0.000000 1.000000 0.000000
vn 0.000000 1.000000 0.000000
s off
g pPlane1
usemtl initialShadingGroup
f 1/1/1 6/6/2 2/2/3 5/5/4 4/4/5 10/10/6 9/9/7 3/3/8 8/8/9 7/7/10
